<svg xmlns="http://www.w3.org/2000/svg" viewBox="0 0 979.67 1105.03"><defs><style>.cls-1{fill:#0050a0;}.cls-2{fill:#fff;}.cls-3{fill:#abc910;}</style></defs><title>Ресурс 2</title><g id="Слой_2" data-name="Слой 2"><g id="Слой_1-2" data-name="Слой 1"><path class="cls-1" d="M322,1105c-8-3.31-11.74-9.59-14.31-17.69Q220.06,811.82,132,536.42q-39.88-125-79.77-250c-5.77-18.07-4-22.69,12.9-30.91q99-48.1,198.18-96C359.44,113.06,455.41,66.31,551.7,20.23c17-8.15,34.9-16.72,53.22-19.45,35.63-5.3,67.26,16.76,79.13,50.79a8.14,8.14,0,0,1,.31.91c2.64,13.38,9,22.7,22.32,29.08,16.63,8,26.5,23.19,32.15,40.89Q784.21,264.73,829.7,407q64.44,201.81,129,403.55c7.87,24.42,11.11,48.33-3,70.73a73.23,73.23,0,0,1-7,9.31c-12.13,13.8-28.24,23.51-45.74,29.09ZM654.85,67.94c-2.66-21.23-23-38.54-44.57-35.91C599,33.4,587.76,38.21,577.33,43.19c-63.63,30.39-127,61.27-190.51,92q-53.52,25.92-107,51.91l.25.45Z"/><path class="cls-2" d="M916.94,274.24c-45.54-5.35-72.32-30.8-81.7-46.87s-32.14-69.64-140.62-69.64-160,94.6-176.77,174.1c-18,85.05,37.08,107.56,80.83,107.56,20.31,0,38.18-4.85,45.21-10.54,57.59-46.69,49.58-183.41,49.42-184.78.73,6.14,35,149-33.42,204.45-17.38,14.09-38.36,21.16-62.7,21.16-15.87,0-33.23-3.11-51.91-9.13-4.11,11.2-9.42,25.64-14.68,39.68-30.16,80.7-99.8,135.61-99.8,135.61C245.69,765.79,281.23,888.17,288.09,924.38c7.9-38.27,36.62-75.77,94.49-125.16C483,713.51,533.92,689.4,555.35,634.5s26.78-96.43,53.56-119.19,34.82-30.81,34.82-30.81,21.43,21.43,22.77,40.18c0,0,29.46,2.68,44.2,18.75s12,29.46,12,29.46,10.71,18.75,33.48,20.09c0,0,6.7,42.86-17.41,53.57s-62.94,14.73-61.61,56.25,18.5,71.75,23.67,129.24c4.73,52.6-.36,98.9-6.91,124l84.84-27.7c-33.44-33.37-26.57-64.13-7.56-116.4,21.43-58.93,58.64-114.47,61.32-181.43s-42.86-127.23-42.86-127.23.23-40.47,4-60.26c1.58-8.25,1.27-6.74,1.58-8.25l-39.08-23.89c33.73,12.52,62.15,17.58,86,17.58,75.6,0,105.4-50.74,113.54-75.17C966.49,321.12,962.47,279.6,916.94,274.24Z"/><path class="cls-1" d="M694.62,157.73c108.48,0,131.25,53.57,140.62,69.64s36.16,41.52,81.7,46.87,49.55,46.88,38.83,79c-8.14,24.43-37.94,75.17-113.54,75.17-23.85,0-52.27-5.06-86-17.58l39.08,23.89c-.31,1.51,0,0-1.58,8.25-3.79,19.79-4,60.26-4,60.26s45.53,60.27,42.86,127.23S792.68,753,771.25,811.91c-19,52.27-25.88,83,7.56,116.4L694,956c6.55-25.07,11.64-71.37,6.91-124-5.17-57.49-22.33-87.73-23.67-129.24s37.5-45.54,61.61-56.25S756.23,593,756.23,593c-22.77-1.34-33.48-20.09-33.48-20.09s2.68-13.39-12-29.46-44.2-18.75-44.2-18.75c-1.34-18.75-22.77-40.18-22.77-40.18s-8,8-34.82,30.81-32.14,64.28-53.56,119.19-72.32,79-172.77,164.72c-57.87,49.39-86.59,86.89-94.5,125.16-6.85-36.21-42.39-158.59,142.72-288.54,0,0,69.64-54.91,99.8-135.61,5.26-14,10.57-28.48,14.68-39.68,18.68,6,36,9.13,51.91,9.13,24.34,0,45.32-7.07,62.7-21.16C728.28,393,694,250.21,693.31,244.07c.16,1.37,8.17,138.09-49.42,184.78-7,5.69-24.9,10.54-45.21,10.54-43.75,0-98.79-22.51-80.83-107.56,16.78-79.5,68.3-174.1,176.77-174.1m0-18.9c-54.22,0-101.66,22.1-137.17,63.9-27.17,32-47.8,76.44-58.1,125.2-8.48,40.15-3.18,72.34,15.74,95.67a84,84,0,0,0,17.63,16.28l-5.19,14.17c-4.09,11.16-9.4,25.56-14.63,39.57-26.81,71.71-88.28,122.87-93.48,127.11C233.56,751.48,259.79,880.1,268.42,922.4c.41,2,.78,3.84,1.09,5.49l17.77,93.88L306.6,928.2c6.9-33.43,33.29-67.7,88.25-114.6,29.37-25.06,54.11-44.53,75.94-61.71,53.13-41.8,85.19-67,102.16-110.52,6.58-16.86,11.71-32.54,16.23-46.37,10-30.63,17.24-52.77,32-65.29,8.57-7.29,15.28-13.11,20.46-17.69,3.26,5.05,5.75,10.2,6,14l1.14,16,16,1.45c5.75.57,24.11,4.13,32,12.7,6.21,6.78,7.13,11.87,7.26,13.55l-2.58,7.53,4.9,5c4.47,7.84,15.37,20.05,31.85,26.07-.33,9.54-2.5,18.92-7.05,20.94-3.82,1.7-8.43,3.32-13.31,5-22.83,8-61,21.5-59.51,69.09.73,22.68,5.66,41.92,10.87,62.29,5.11,20,10.4,40.61,12.86,68,4.6,51.11-.56,95.24-6.37,117.49l-8.75,33.49L699.83,974l84.85-27.7L814,936.71l-21.83-21.78c-24.39-24.33-22.46-43.45-3.14-96.56,6.26-17.22,13.87-34,21.93-51.82,18.92-41.79,38.49-85,40.5-135.32,2.46-61.52-31-116.58-42.76-133.86.26-13.66,1.18-38.21,3.6-50.83l.27-1.41a209.13,209.13,0,0,0,29.67,2.2c97.19,0,126.57-73.38,131.48-88.09,9.36-28.08,7.64-55.34-4.72-74.78-7.24-11.4-21.77-25.69-49.84-29-38.68-4.55-60.68-25.79-67.58-37.62-.51-.87-1.06-1.87-1.67-3-11.55-20.81-42.24-76.06-155.28-76.06Z"/><path class="cls-2" d="M349.52,679c2.93-3,5.94-5.9,9.06-8.86a208.61,208.61,0,0,1-47.17-65.35l82.39-29.59a363.8,363.8,0,0,0,23.77,46.88l1.85-1.32c1-.78,3.81-3.15,8-6.91a350.79,350.79,0,0,1-21.75-42.91l83.44-30a276.89,276.89,0,0,0,15.45-27.78l-35.38-95.33L504,405.66a88.53,88.53,0,0,1-4.41-11.81L464.77,406l-29.56-79.64a59.41,59.41,0,0,1,6.47-1.48c17.54-2.85,36.69,2.19,55.79,13.41.54-3.41,1.14-6.85,1.88-10.38.19-.92.42-1.82.62-2.73-12.33-6.7-24.7-11.09-36.78-12.83,1.57-.29,3.12-.63,4.7-.89A209.63,209.63,0,0,1,504,308.83c1.16-4.23,2.41-8.41,3.72-12.55A222.21,222.21,0,0,0,465.86,299C345.24,318.67,263.08,432.79,282.71,553.42A220.48,220.48,0,0,0,349.52,679ZM495.58,525.23l-94.62,34c-.46-1.2-1-2.35-1.43-3.56-13.36-36-20.55-72.37-21.47-106L457.26,422Zm-72-194,29.29,78.93L378,436.32a223.11,223.11,0,0,1,2.48-29.43C386.43,369.55,401.64,343.16,423.58,331.25Zm-27,5.81c-20.24,23.13-31.06,60.14-31.29,103.72L299.63,463.7A210.18,210.18,0,0,1,396.54,337.06ZM296.2,478.25,365.53,454c1.4,33.13,8.62,69.43,22.19,106,.43,1.18.94,2.28,1.38,3.44l-82.62,29.68a209.19,209.19,0,0,1-10.28-114.9Z"/><path class="cls-1" d="M675.68,951.23l-2.44,9.35q-163.23,52-326.4,104.23l-11.22,3.58Q318,1013.2,300.42,958.1l6.18-29.9c6.9-33.43,33.29-67.7,88.25-114.6,29.37-25.06,54.11-44.53,75.94-61.71,53.13-41.8,85.19-67,102.16-110.52,6.58-16.86,11.71-32.54,16.23-46.37,10-30.63,17.24-52.77,32-65.29,8.57-7.29,15.28-13.11,20.46-17.69,3.26,5.05,5.75,10.2,6,14l1.14,16,16,1.45c5.75.57,24.11,4.13,32,12.7,6.21,6.78,7.13,11.87,7.26,13.55l-2.58,7.53,4.9,5c4.47,7.84,15.37,20.05,31.85,26.07-.33,9.54-2.5,18.92-7.05,20.94-3.82,1.7-8.43,3.32-13.31,5-22.83,8-61,21.5-59.51,69.09.73,22.68,5.66,41.92,10.87,62.29,5.11,20,10.4,40.61,12.86,68C686.65,884.85,681.49,929,675.68,951.23Z"/><path class="cls-3" d="M967.12,711.57c-4.86-4.57-10.73-7.56-16.92-9.83a119.55,119.55,0,0,0-39.18-7c-10.09-.19-20,.8-29.64,4.23q-42.14,15-84.33,29.91l-95.22,33.78q-63.27,22.44-126.52,45c-2.67.95-4.68.29-6.93-.71q-41.74-18.6-83.5-37.2a6.65,6.65,0,0,0-5.64-.21c-3.82,1.56-7.78,2.75-11.67,4.14-2.51.89-5,1.86-7.73,2.89.72,1.21,1.2,2.11,1.78,3q4.33,6.24,8.71,12.46c17.67,25,36.16,49.4,57.08,71.87a28.31,28.31,0,0,0,17.06,8.86,147.5,147.5,0,0,0,32,1.16,412.54,412.54,0,0,0,56.4-6.82c9-1.81,18-3.67,27-5.72-119,106.09-299,122-436.58,28.09C86.38,795.81,35.42,623.41,89.73,474.42l-22-67.23c-119.91,175.62-76.57,418.28,99,538.2,173.56,118.51,409.58,75.77,530.84-94.77,5.9-2,11.79-4.15,17.71-6.13,1.11-.38,2.22-.73,3.61-1.18a15.16,15.16,0,0,1-.09,2.05C715,863.27,675.9,960.83,675.9,960.83s25.78-6.55,38-10.86c5.25-1.85,15-7.45,17.32-12.44,3.61-7.63,97.24-130.89,97.24-130.89a7,7,0,0,1,3.37-3.36c28.43-10.2,56.93-20.23,85.38-30.37,10.15-3.62,20.54-6.72,29.77-12.53,10.94-6.87,20.45-15.19,25-27.64C975.23,724,974.19,718.21,967.12,711.57Z"/><path class="cls-3" d="M641.24,704.81q29.29,23.64,58.58,47.31a3.62,3.62,0,0,0,4,.68q28.68-10.24,57.42-20.36c3.7-1.31,7.39-2.65,11.78-4.22-1.18-.72-1.62-1-2.11-1.27q-10.62-5.09-21.24-10.16c-21.84-10.39-43.72-20.72-65.52-31.21a17.62,17.62,0,0,0-14.3-1c-7.62,2.73-15.26,5.41-22.88,8.12-2.83,1-5.69,1.91-8.46,3-3.36,1.35-3.76,3.35-1.19,5.86C638.5,702.77,639.91,703.74,641.24,704.81Z"/></g></g></svg>